<?xml version="1.0" encoding="UTF-8" standalone="no"?>
<!DOCTYPE svg PUBLIC "-//W3C//DTD SVG 1.1//EN" "http://www.w3.org/Graphics/SVG/1.1/DTD/svg11.dtd">
<svg width="100%" height="100%" viewBox="0 0 52 52" version="1.1" xmlns="http://www.w3.org/2000/svg" xmlns:xlink="http://www.w3.org/1999/xlink" xml:space="preserve" xmlns:serif="http://www.serif.com/" style="fill-rule:evenodd;clip-rule:evenodd;stroke-linejoin:round;stroke-miterlimit:1.41421;">
    <g transform="matrix(1,0,0,1,6.39843,-0.149217)">
        <g>
            <g>
                <path d="M25.3,20.2C25,18.4 23.8,17.2 22.2,17.2C20.2,17.2 18.5,18.8 18.5,20.9C18.5,21.1 18.5,21.3 18.6,21.5C15.4,21.9 13,23.8 12.8,26.2C12.8,26.3 12.8,26.4 12.8,26.5C11.6,23.8 10.2,20.3 10.2,18.3C10.2,13.3 14.1,9.2 19.2,9.1C23.7,9.2 27.3,12.4 28,16.7C28,16.8 28,16.9 28,16.9C28.1,17.2 28.4,17.4 28.7,17.4C29.1,17.4 29.4,17.1 29.4,16.8L29.4,16.7L29.4,16.6C28.6,11.7 24.4,8 19.2,7.8L19.1,7.8C13.4,7.7 8.8,12.4 8.8,18.2C8.8,22 13.3,30.7 13.4,31C13.5,31.2 13.8,31.4 14,31.4L19.1,31.4C19.5,31.4 19.8,31.1 19.8,30.7C19.8,30.3 19.5,30 19.1,30L14.4,30C14.3,29.8 14.1,29.5 14,29.1L14,26.8C14,26.6 14,26.5 14,26.3C14.1,24.4 16.4,22.9 19.4,22.8C19.6,22.8 19.8,22.7 19.9,22.5C20,22.3 20,22.1 19.9,21.9C19.8,21.6 19.7,21.3 19.7,21C19.7,19.7 20.8,18.6 22.1,18.6C23.5,18.6 23.9,19.9 24,21C24,21.2 24.1,21.3 24.2,21.5C24.3,21.6 24.5,21.7 24.7,21.7L25.1,21.7C27.4,21.7 29.1,23.7 29.1,24.9C29.1,25.8 28,26.3 25.8,26.4C25.5,26.4 25.3,26.6 25.2,26.9C25.1,27.2 25,27.6 25,28C24.9,28.3 24.8,28.9 24.8,29C24.6,29.3 24.7,29.7 25,29.9C25.1,30 25.2,30 25.4,30C25.6,30 25.8,29.9 25.9,29.7C26.1,29.4 26.2,29 26.3,28.2C26.3,28 26.4,27.9 26.4,27.7C29.1,27.5 30.4,26.6 30.4,24.9C30.5,22.7 28.2,20.2 25.3,20.2Z" style="fill:rgb(41,171,226);fill-rule:nonzero;"/>
                <path d="M24.8,33.4L14.3,33.4C13.9,33.4 13.6,33.7 13.6,34.1C13.6,34.5 13.9,34.8 14.3,34.8L24.8,34.8C25.2,34.8 25.5,34.5 25.5,34.1C25.5,33.7 25.2,33.4 24.8,33.4Z" style="fill:white;fill-rule:nonzero;"/>
                <path d="M24.8,36.6L14.3,36.6C13.9,36.6 13.6,36.9 13.6,37.3C13.6,37.7 13.9,38 14.3,38L24.8,38C25.2,38 25.5,37.7 25.5,37.3C25.5,37 25.2,36.6 24.8,36.6Z" style="fill:white;fill-rule:nonzero;"/>
                <path d="M23.2,39.9L15.9,39.9C15.5,39.9 15.2,40.2 15.2,40.6C15.2,41 15.5,41.3 15.9,41.3L23.2,41.3C23.6,41.3 23.9,41 23.9,40.6C23.9,40.2 23.6,39.9 23.2,39.9Z" style="fill:white;fill-rule:nonzero;"/>
                <path d="M20.9,43.1L18.2,43.1C17.8,43.1 17.5,43.4 17.5,43.8C17.5,44.2 17.8,44.5 18.2,44.5L20.9,44.5C21.3,44.5 21.6,44.2 21.6,43.8C21.6,43.4 21.3,43.1 20.9,43.1Z" style="fill:white;fill-rule:nonzero;"/>
                <circle cx="25.9" cy="23.4" r="0.7" style="fill:white;"/>
            </g>
        </g>
    </g>
</svg>
