<?xml version="1.0" encoding="UTF-8" standalone="no"?>
<!DOCTYPE svg PUBLIC "-//W3C//DTD SVG 1.1//EN" "http://www.w3.org/Graphics/SVG/1.1/DTD/svg11.dtd">
<svg width="100%" height="100%" viewBox="0 0 214 52" version="1.1" xmlns="http://www.w3.org/2000/svg" xmlns:xlink="http://www.w3.org/1999/xlink" xml:space="preserve" xmlns:serif="http://www.serif.com/" style="fill-rule:evenodd;clip-rule:evenodd;stroke-linejoin:round;stroke-miterlimit:1.41421;">
    <g>
        <g>
            <path d="M25.3,20.2C25,18.4 23.8,17.2 22.2,17.2C20.2,17.2 18.5,18.8 18.5,20.9C18.5,21.1 18.5,21.3 18.6,21.5C15.4,21.9 13,23.8 12.8,26.2C12.8,26.3 12.8,26.4 12.8,26.5C11.6,23.8 10.2,20.3 10.2,18.3C10.2,13.3 14.1,9.2 19.2,9.1C23.7,9.2 27.3,12.4 28,16.7C28,16.8 28,16.9 28,16.9C28.1,17.2 28.4,17.4 28.7,17.4C29.1,17.4 29.4,17.1 29.4,16.8L29.4,16.7L29.4,16.6C28.6,11.7 24.4,8 19.2,7.8L19.1,7.8C13.4,7.7 8.8,12.4 8.8,18.2C8.8,22 13.3,30.7 13.4,31C13.5,31.2 13.8,31.4 14,31.4L19.1,31.4C19.5,31.4 19.8,31.1 19.8,30.7C19.8,30.3 19.5,30 19.1,30L14.4,30C14.3,29.8 14.1,29.5 14,29.1L14,26.8C14,26.6 14,26.5 14,26.3C14.1,24.4 16.4,22.9 19.4,22.8C19.6,22.8 19.8,22.7 19.9,22.5C20,22.3 20,22.1 19.9,21.9C19.8,21.6 19.7,21.3 19.7,21C19.7,19.7 20.8,18.6 22.1,18.6C23.5,18.6 23.9,19.9 24,21C24,21.2 24.1,21.3 24.2,21.5C24.3,21.6 24.5,21.7 24.7,21.7L25.1,21.7C27.4,21.7 29.1,23.7 29.1,24.9C29.1,25.8 28,26.3 25.8,26.4C25.5,26.4 25.3,26.6 25.2,26.9C25.1,27.2 25,27.6 25,28C24.9,28.3 24.8,28.9 24.8,29C24.6,29.3 24.7,29.7 25,29.9C25.1,30 25.2,30 25.4,30C25.6,30 25.8,29.9 25.9,29.7C26.1,29.4 26.2,29 26.3,28.2C26.3,28 26.4,27.9 26.4,27.7C29.1,27.5 30.4,26.6 30.4,24.9C30.5,22.7 28.2,20.2 25.3,20.2Z" style="fill:rgb(41,171,226);fill-rule:nonzero;"/>
            <path d="M24.8,33.4L14.3,33.4C13.9,33.4 13.6,33.7 13.6,34.1C13.6,34.5 13.9,34.8 14.3,34.8L24.8,34.8C25.2,34.8 25.5,34.5 25.5,34.1C25.5,33.7 25.2,33.4 24.8,33.4Z" style="fill:white;fill-rule:nonzero;"/>
            <path d="M24.8,36.6L14.3,36.6C13.9,36.6 13.6,36.9 13.6,37.3C13.6,37.7 13.9,38 14.3,38L24.8,38C25.2,38 25.5,37.7 25.5,37.3C25.5,37 25.2,36.6 24.8,36.6Z" style="fill:white;fill-rule:nonzero;"/>
            <path d="M23.2,39.9L15.9,39.9C15.5,39.9 15.2,40.2 15.2,40.6C15.2,41 15.5,41.3 15.9,41.3L23.2,41.3C23.6,41.3 23.9,41 23.9,40.6C23.9,40.2 23.6,39.9 23.2,39.9Z" style="fill:white;fill-rule:nonzero;"/>
            <path d="M20.9,43.1L18.2,43.1C17.8,43.1 17.5,43.4 17.5,43.8C17.5,44.2 17.8,44.5 18.2,44.5L20.9,44.5C21.3,44.5 21.6,44.2 21.6,43.8C21.6,43.4 21.3,43.1 20.9,43.1Z" style="fill:white;fill-rule:nonzero;"/>
            <circle cx="25.9" cy="23.4" r="0.7" style="fill:white;"/>
        </g>
        <g>
            <g>
                <path d="M53.3,9.6L53.3,21.4C53.3,21.7 53.1,21.9 52.8,21.9L50.8,21.9C50.5,21.9 50.3,21.7 50.3,21.4L50.3,14L48,19.6C47.9,19.8 47.7,19.9 47.5,19.9L46.3,19.9C46,19.9 45.9,19.8 45.8,19.6L43.5,14.1L43.5,21.5C43.5,21.8 43.3,22 43,22L41,22C40.7,22 40.5,21.8 40.5,21.5L40.5,9.6C40.5,9.3 40.7,9.1 41,9.1L43.4,9.1C43.7,9.1 43.8,9.2 43.9,9.4L46.9,16.4L49.9,9.4C50,9.2 50.2,9.1 50.4,9.1L52.9,9.1C53.1,9.2 53.3,9.3 53.3,9.6Z" style="fill:white;fill-rule:nonzero;"/>
                <path d="M54.9,17.4C54.9,14.7 57,12.6 59.7,12.6C62.4,12.6 64.5,14.7 64.5,17.4C64.5,20.1 62.4,22.2 59.7,22.2C57,22.2 54.9,20.1 54.9,17.4ZM61.8,17.4C61.8,16.1 60.9,15.3 59.7,15.3C58.5,15.3 57.6,16.2 57.6,17.4C57.6,18.6 58.5,19.5 59.7,19.5C60.9,19.5 61.8,18.7 61.8,17.4Z" style="fill:white;fill-rule:nonzero;"/>
                <path d="M73.9,13.3L73.9,21.5C73.9,21.8 73.7,22 73.4,22L71.6,22C71.3,22 71.1,21.8 71.1,21.5L71.1,21.1C70.7,21.7 69.9,22.2 68.7,22.2C67,22.2 65.8,20.9 65.8,18.6L65.8,13.3C65.8,13 66,12.8 66.3,12.8L68.1,12.8C68.4,12.8 68.6,13 68.6,13.3L68.6,18.4C68.6,19.3 69.1,19.7 69.8,19.7C70.6,19.7 71.1,19.2 71.1,18.2L71.1,13.3C71.1,13 71.3,12.8 71.6,12.8L73.4,12.8C73.7,12.8 73.9,13 73.9,13.3Z" style="fill:white;fill-rule:nonzero;"/>
                <path d="M83.1,19.2C83.1,21.3 81.3,22.2 79.3,22.2C77.4,22.2 75.8,21.4 75.5,19.4C75.5,19.1 75.6,18.9 75.9,18.9L77.7,18.9C78,18.9 78.1,19 78.2,19.3C78.3,19.6 78.7,19.8 79.2,19.8C80,19.8 80.3,19.5 80.3,19.2C80.3,17.9 75.5,19.1 75.5,15.6C75.5,13.5 77.3,12.6 79.2,12.6C80.9,12.6 82.6,13.4 82.8,15.4C82.8,15.7 82.7,15.9 82.4,15.9L80.6,15.9C80.3,15.9 80.2,15.8 80.1,15.5C80,15.2 79.7,15 79.2,15C78.5,15 78.2,15.3 78.2,15.6C78.3,16.9 83.1,15.6 83.1,19.2Z" style="fill:white;fill-rule:nonzero;"/>
                <path d="M93.6,17.4C93.6,17.6 93.6,17.9 93.6,18.1C93.6,18.4 93.4,18.5 93.1,18.5L90.9,18.5L87,18.5C87.3,19.6 88.2,20 89.1,20C89.6,20 90.1,19.8 90.4,19.5C90.6,19.4 90.7,19.3 91,19.3L92.7,19.3C93,19.3 93.2,19.5 93.1,19.8C92.4,21.4 90.9,22.2 89,22.2C86,22.2 84,20.1 84,17.4C84,14.7 86,12.6 88.9,12.6C91.6,12.6 93.6,14.6 93.6,17.4ZM90.8,16.4C90.5,15.4 89.7,15 88.9,15C87.9,15 87.2,15.5 86.9,16.4L90.8,16.4Z" style="fill:white;fill-rule:nonzero;"/>
                <path d="M102.5,19.6L102.5,21.5C102.5,21.8 102.3,22 102,22L96.6,22L95.6,22C95.3,22 95.1,21.8 95.1,21.5L95.1,9.6C95.1,9.3 95.3,9.1 95.6,9.1L97.6,9.1C97.9,9.1 98.1,9.3 98.1,9.6L98.1,19.1L102,19.1C102.3,19.1 102.5,19.3 102.5,19.6Z" style="fill:rgb(41,171,226);fill-rule:nonzero;"/>
                <path d="M103.6,11.3L103.6,9.6C103.6,9.3 103.8,9.1 104.1,9.1L105.9,9.1C106.2,9.1 106.4,9.3 106.4,9.6L106.4,11.2C106.4,11.5 106.2,11.7 105.9,11.7L104.1,11.7C103.8,11.7 103.6,11.6 103.6,11.3ZM103.6,21.5L103.6,13.3C103.6,13 103.8,12.8 104.1,12.8L105.9,12.8C106.2,12.8 106.4,13 106.4,13.3L106.4,21.5C106.4,21.8 106.2,22 105.9,22L104.1,22C103.8,21.9 103.6,21.8 103.6,21.5Z" style="fill:rgb(41,171,226);fill-rule:nonzero;"/>
                <path d="M117.3,12.8C117.6,12.8 117.8,13 117.8,13.3L117.8,21.5C117.8,24.6 115.3,25.9 113.1,25.9C110.9,25.9 108.8,24.8 108.5,22.7C108.5,22.4 108.7,22.2 109,22.2L110.8,22.2C111.1,22.2 111.2,22.3 111.3,22.6C111.5,23.1 112.1,23.5 113.1,23.5C114.3,23.5 115.1,22.8 115.1,21.6L115.1,20.8C114.5,21.5 113.6,22 112.3,22C109.9,22 107.9,19.9 107.9,17.4C107.9,14.9 109.9,12.8 112.3,12.8C113.6,12.8 114.5,13.2 115.1,14L115.1,13.5C115.1,13.2 115.3,13 115.6,13L117.3,12.8ZM115.1,17.2C115.1,15.9 114.2,15.1 112.9,15.1C111.6,15.1 110.7,16 110.7,17.2C110.7,18.5 111.6,19.3 112.9,19.3C114.2,19.3 115.1,18.4 115.1,17.2Z" style="fill:rgb(41,171,226);fill-rule:nonzero;"/>
                <path d="M127.7,16.2L127.7,21.5C127.7,21.8 127.5,22 127.2,22L125.4,22C125.1,22 124.9,21.8 124.9,21.5L124.9,16.4C124.9,15.5 124.4,15.1 123.7,15.1C122.9,15.1 122.4,15.6 122.4,16.6L122.4,21.5C122.4,21.8 122.2,22 121.9,22L120.1,22C119.8,22 119.6,21.8 119.6,21.5L119.6,9.6C119.6,9.3 119.8,9.1 120.1,9.1L121.9,9.1C122.2,9.1 122.4,9.3 122.4,9.6L122.4,13.6C122.8,13 123.6,12.5 124.8,12.5C126.5,12.6 127.7,13.9 127.7,16.2Z" style="fill:rgb(41,171,226);fill-rule:nonzero;"/>
                <path d="M134.4,13.3L134.4,15C134.4,15.3 134.2,15.5 133.9,15.5L132.9,15.5L132.9,21.5C132.9,21.8 132.7,22 132.4,22L130.6,22C130.3,22 130.1,21.8 130.1,21.5L130.1,15.5L129.1,15.5C128.8,15.5 128.6,15.3 128.6,15L128.6,13.3C128.6,13 128.8,12.8 129.1,12.8L130.1,12.8L130.1,10.3C130.1,10 130.3,9.8 130.6,9.8L132.4,9.8C132.7,9.8 132.9,10 132.9,10.3L132.9,12.8L133.9,12.8C134.3,12.8 134.4,13 134.4,13.3Z" style="fill:rgb(41,171,226);fill-rule:nonzero;"/>
            </g>
        </g>
        <g transform="matrix(1,0,0,1,-2.1168,0.000523442)">
            <path d="M44.989,38.845L46.477,34.653L46.509,34.653L47.949,38.845L44.989,38.845ZM45.229,31.837L40.909,43.261L43.437,43.261L44.333,40.717L48.605,40.717L49.469,43.261L52.077,43.261L47.805,31.837L45.229,31.837Z" style="fill:white;fill-rule:nonzero;"/>
            <path d="M58.461,37.901L60.685,37.901C60.653,37.368 60.525,36.907 60.301,36.517C60.077,36.128 59.787,35.803 59.429,35.541C59.072,35.28 58.667,35.085 58.213,34.957C57.76,34.829 57.288,34.765 56.797,34.765C56.125,34.765 55.528,34.877 55.005,35.101C54.483,35.325 54.04,35.637 53.677,36.037C53.315,36.437 53.04,36.912 52.853,37.461C52.667,38.011 52.573,38.605 52.573,39.245C52.573,39.864 52.675,40.432 52.877,40.949C53.08,41.467 53.363,41.912 53.725,42.285C54.088,42.659 54.528,42.949 55.045,43.157C55.563,43.365 56.131,43.469 56.749,43.469C57.848,43.469 58.749,43.181 59.453,42.605C60.157,42.029 60.584,41.192 60.733,40.093L58.541,40.093C58.467,40.605 58.283,41.013 57.989,41.317C57.696,41.621 57.277,41.773 56.733,41.773C56.381,41.773 56.083,41.693 55.837,41.533C55.592,41.373 55.397,41.168 55.253,40.917C55.109,40.667 55.005,40.387 54.941,40.077C54.877,39.768 54.845,39.464 54.845,39.165C54.845,38.856 54.877,38.544 54.941,38.229C55.005,37.915 55.115,37.627 55.269,37.365C55.424,37.104 55.624,36.891 55.869,36.725C56.115,36.56 56.419,36.477 56.781,36.477C57.752,36.477 58.312,36.952 58.461,37.901Z" style="fill:white;fill-rule:nonzero;"/>
            <path d="M63.933,39.133C63.933,38.792 63.968,38.464 64.037,38.149C64.107,37.835 64.221,37.552 64.381,37.301C64.541,37.051 64.749,36.851 65.005,36.701C65.261,36.552 65.576,36.477 65.949,36.477C66.301,36.477 66.603,36.557 66.853,36.717C67.104,36.877 67.304,37.085 67.453,37.341C67.603,37.597 67.712,37.885 67.781,38.205C67.851,38.525 67.885,38.845 67.885,39.165C67.885,39.507 67.851,39.835 67.781,40.149C67.712,40.464 67.6,40.741 67.445,40.981C67.291,41.221 67.088,41.413 66.837,41.557C66.587,41.701 66.275,41.773 65.901,41.773C65.528,41.773 65.216,41.699 64.965,41.549C64.715,41.4 64.512,41.2 64.357,40.949C64.203,40.699 64.093,40.416 64.029,40.101C63.965,39.787 63.933,39.464 63.933,39.133ZM70.077,46.157L70.077,34.989L67.917,34.989L67.917,36.045L67.885,36.045C67.629,35.587 67.275,35.259 66.821,35.061C66.368,34.864 65.885,34.765 65.373,34.765C64.744,34.765 64.197,34.888 63.733,35.133C63.269,35.379 62.883,35.707 62.573,36.117C62.264,36.528 62.035,37 61.885,37.533C61.736,38.067 61.661,38.616 61.661,39.181C61.661,39.981 61.773,40.656 61.997,41.205C62.221,41.755 62.504,42.197 62.845,42.533C63.187,42.869 63.563,43.109 63.973,43.253C64.384,43.397 64.781,43.469 65.165,43.469C65.677,43.469 66.173,43.373 66.653,43.181C67.133,42.989 67.507,42.669 67.773,42.221L67.805,42.221L67.805,46.157L70.077,46.157Z" style="fill:white;fill-rule:nonzero;"/>
            <path d="M79.549,43.261L79.549,34.989L77.277,34.989L77.277,39.325C77.277,40.168 77.139,40.773 76.861,41.141C76.584,41.509 76.136,41.693 75.517,41.693C74.973,41.693 74.595,41.525 74.381,41.189C74.168,40.853 74.061,40.344 74.061,39.661L74.061,34.989L71.789,34.989L71.789,40.077C71.789,40.589 71.835,41.056 71.925,41.477C72.016,41.899 72.173,42.256 72.397,42.549C72.621,42.843 72.928,43.069 73.317,43.229C73.707,43.389 74.205,43.469 74.813,43.469C75.293,43.469 75.763,43.363 76.221,43.149C76.68,42.936 77.053,42.589 77.341,42.109L77.389,42.109L77.389,43.261L79.549,43.261Z" style="fill:white;fill-rule:nonzero;"/>
            <path d="M83.613,33.709L83.613,31.837L81.341,31.837L81.341,33.709L83.613,33.709ZM81.341,34.989L81.341,43.261L83.613,43.261L83.613,34.989L81.341,34.989Z" style="fill:white;fill-rule:nonzero;"/>
            <path d="M87.165,40.573L85.005,40.573C85.027,41.128 85.152,41.589 85.381,41.957C85.611,42.325 85.904,42.621 86.261,42.845C86.619,43.069 87.027,43.229 87.485,43.325C87.944,43.421 88.413,43.469 88.893,43.469C89.363,43.469 89.824,43.424 90.277,43.333C90.731,43.243 91.133,43.085 91.485,42.861C91.837,42.637 92.123,42.341 92.341,41.973C92.56,41.605 92.669,41.149 92.669,40.605C92.669,40.221 92.595,39.899 92.445,39.637C92.296,39.376 92.099,39.157 91.853,38.981C91.608,38.805 91.328,38.664 91.013,38.557C90.699,38.451 90.376,38.36 90.045,38.285C89.725,38.211 89.411,38.141 89.101,38.077C88.792,38.013 88.517,37.941 88.277,37.861C88.037,37.781 87.843,37.677 87.693,37.549C87.544,37.421 87.469,37.256 87.469,37.053C87.469,36.883 87.512,36.747 87.597,36.645C87.683,36.544 87.787,36.467 87.909,36.413C88.032,36.36 88.168,36.325 88.317,36.309C88.467,36.293 88.605,36.285 88.733,36.285C89.139,36.285 89.491,36.363 89.789,36.517C90.088,36.672 90.253,36.968 90.285,37.405L92.445,37.405C92.403,36.893 92.272,36.469 92.053,36.133C91.835,35.797 91.56,35.528 91.229,35.325C90.899,35.123 90.523,34.979 90.101,34.893C89.68,34.808 89.245,34.765 88.797,34.765C88.349,34.765 87.912,34.805 87.485,34.885C87.059,34.965 86.675,35.104 86.333,35.301C85.992,35.499 85.717,35.768 85.509,36.109C85.301,36.451 85.197,36.888 85.197,37.421C85.197,37.784 85.272,38.091 85.421,38.341C85.571,38.592 85.768,38.8 86.013,38.965C86.259,39.131 86.539,39.264 86.853,39.365C87.168,39.467 87.491,39.555 87.821,39.629C88.632,39.8 89.264,39.971 89.717,40.141C90.171,40.312 90.397,40.568 90.397,40.909C90.397,41.112 90.349,41.28 90.253,41.413C90.157,41.547 90.037,41.653 89.893,41.733C89.749,41.813 89.589,41.872 89.413,41.909C89.237,41.947 89.069,41.965 88.909,41.965C88.685,41.965 88.469,41.939 88.261,41.885C88.053,41.832 87.869,41.749 87.709,41.637C87.549,41.525 87.419,41.381 87.317,41.205C87.216,41.029 87.165,40.819 87.165,40.573Z" style="fill:white;fill-rule:nonzero;"/>
            <path d="M96.333,33.709L96.333,31.837L94.061,31.837L94.061,33.709L96.333,33.709ZM94.061,34.989L94.061,43.261L96.333,43.261L96.333,34.989L94.061,34.989Z" style="fill:white;fill-rule:nonzero;"/>
            <path d="M101.005,34.989L101.005,32.509L98.733,32.509L98.733,34.989L97.357,34.989L97.357,36.509L98.733,36.509L98.733,41.389C98.733,41.805 98.803,42.141 98.941,42.397C99.08,42.653 99.269,42.851 99.509,42.989C99.749,43.128 100.027,43.221 100.341,43.269C100.656,43.317 100.989,43.341 101.341,43.341C101.565,43.341 101.795,43.336 102.029,43.325C102.264,43.315 102.477,43.293 102.669,43.261L102.669,41.501C102.563,41.523 102.451,41.539 102.333,41.549C102.216,41.56 102.093,41.565 101.965,41.565C101.581,41.565 101.325,41.501 101.197,41.373C101.069,41.245 101.005,40.989 101.005,40.605L101.005,36.509L102.669,36.509L102.669,34.989L101.005,34.989Z" style="fill:white;fill-rule:nonzero;"/>
            <path d="M106.093,33.709L106.093,31.837L103.821,31.837L103.821,33.709L106.093,33.709ZM103.821,34.989L103.821,43.261L106.093,43.261L106.093,34.989L103.821,34.989Z" style="fill:white;fill-rule:nonzero;"/>
            <path d="M109.901,39.133C109.901,38.803 109.933,38.477 109.997,38.157C110.061,37.837 110.171,37.555 110.325,37.309C110.48,37.064 110.685,36.864 110.941,36.709C111.197,36.555 111.517,36.477 111.901,36.477C112.285,36.477 112.608,36.555 112.869,36.709C113.131,36.864 113.339,37.064 113.493,37.309C113.648,37.555 113.757,37.837 113.821,38.157C113.885,38.477 113.917,38.803 113.917,39.133C113.917,39.464 113.885,39.787 113.821,40.101C113.757,40.416 113.648,40.699 113.493,40.949C113.339,41.2 113.131,41.4 112.869,41.549C112.608,41.699 112.285,41.773 111.901,41.773C111.517,41.773 111.197,41.699 110.941,41.549C110.685,41.4 110.48,41.2 110.325,40.949C110.171,40.699 110.061,40.416 109.997,40.101C109.933,39.787 109.901,39.464 109.901,39.133ZM107.629,39.133C107.629,39.795 107.731,40.392 107.933,40.925C108.136,41.459 108.424,41.915 108.797,42.293C109.171,42.672 109.619,42.963 110.141,43.165C110.664,43.368 111.251,43.469 111.901,43.469C112.552,43.469 113.141,43.368 113.669,43.165C114.197,42.963 114.648,42.672 115.021,42.293C115.395,41.915 115.683,41.459 115.885,40.925C116.088,40.392 116.189,39.795 116.189,39.133C116.189,38.472 116.088,37.872 115.885,37.333C115.683,36.795 115.395,36.336 115.021,35.957C114.648,35.579 114.197,35.285 113.669,35.077C113.141,34.869 112.552,34.765 111.901,34.765C111.251,34.765 110.664,34.869 110.141,35.077C109.619,35.285 109.171,35.579 108.797,35.957C108.424,36.336 108.136,36.795 107.933,37.333C107.731,37.872 107.629,38.472 107.629,39.133Z" style="fill:white;fill-rule:nonzero;"/>
            <path d="M117.661,34.989L117.661,43.261L119.933,43.261L119.933,38.925C119.933,38.083 120.072,37.477 120.349,37.109C120.627,36.741 121.075,36.557 121.693,36.557C122.237,36.557 122.616,36.725 122.829,37.061C123.043,37.397 123.149,37.907 123.149,38.589L123.149,43.261L125.421,43.261L125.421,38.173C125.421,37.661 125.376,37.195 125.285,36.773C125.195,36.352 125.037,35.995 124.813,35.701C124.589,35.408 124.283,35.179 123.893,35.013C123.504,34.848 123.005,34.765 122.397,34.765C121.917,34.765 121.448,34.875 120.989,35.093C120.531,35.312 120.157,35.661 119.869,36.141L119.821,36.141L119.821,34.989L117.661,34.989Z" style="fill:white;fill-rule:nonzero;"/>
            <path d="M134.349,37.213L134.349,33.789L136.301,33.789C136.589,33.789 136.867,33.811 137.133,33.853C137.4,33.896 137.635,33.979 137.837,34.101C138.04,34.224 138.203,34.397 138.325,34.621C138.448,34.845 138.509,35.139 138.509,35.501C138.509,35.864 138.448,36.157 138.325,36.381C138.203,36.605 138.04,36.779 137.837,36.901C137.635,37.024 137.4,37.107 137.133,37.149C136.867,37.192 136.589,37.213 136.301,37.213L134.349,37.213ZM131.837,31.837L131.837,43.261L134.349,43.261L134.349,39.165L136.989,39.165C137.704,39.165 138.312,39.061 138.813,38.853C139.315,38.645 139.723,38.371 140.037,38.029C140.352,37.688 140.581,37.296 140.725,36.853C140.869,36.411 140.941,35.96 140.941,35.501C140.941,35.032 140.869,34.579 140.725,34.141C140.581,33.704 140.352,33.315 140.037,32.973C139.723,32.632 139.315,32.357 138.813,32.149C138.312,31.941 137.704,31.837 136.989,31.837L131.837,31.837Z" style="fill:white;fill-rule:nonzero;"/>
            <path d="M144.605,33.709L144.605,31.837L142.333,31.837L142.333,33.709L144.605,33.709ZM142.333,34.989L142.333,43.261L144.605,43.261L144.605,34.989L142.333,34.989Z" style="fill:white;fill-rule:nonzero;"/>
            <path d="M150.573,41.773C150.211,41.773 149.901,41.699 149.645,41.549C149.389,41.4 149.184,41.205 149.029,40.965C148.875,40.725 148.763,40.445 148.693,40.125C148.624,39.805 148.589,39.48 148.589,39.149C148.589,38.808 148.621,38.477 148.685,38.157C148.749,37.837 148.859,37.555 149.013,37.309C149.168,37.064 149.371,36.864 149.621,36.709C149.872,36.555 150.184,36.477 150.557,36.477C150.92,36.477 151.227,36.555 151.477,36.709C151.728,36.864 151.933,37.067 152.093,37.317C152.253,37.568 152.368,37.853 152.437,38.173C152.507,38.493 152.541,38.819 152.541,39.149C152.541,39.48 152.509,39.805 152.445,40.125C152.381,40.445 152.272,40.725 152.117,40.965C151.963,41.205 151.76,41.4 151.509,41.549C151.259,41.699 150.947,41.773 150.573,41.773ZM146.397,34.989L146.397,46.157L148.669,46.157L148.669,42.237L148.701,42.237C148.979,42.643 149.333,42.949 149.765,43.157C150.197,43.365 150.669,43.469 151.181,43.469C151.789,43.469 152.32,43.352 152.773,43.117C153.227,42.883 153.605,42.568 153.909,42.173C154.213,41.779 154.44,41.325 154.589,40.813C154.739,40.301 154.813,39.768 154.813,39.213C154.813,38.627 154.739,38.064 154.589,37.525C154.44,36.987 154.211,36.515 153.901,36.109C153.592,35.704 153.203,35.379 152.733,35.133C152.264,34.888 151.704,34.765 151.053,34.765C150.541,34.765 150.072,34.867 149.645,35.069C149.219,35.272 148.867,35.597 148.589,36.045L148.557,36.045L148.557,34.989L146.397,34.989Z" style="fill:white;fill-rule:nonzero;"/>
            <path d="M161.741,38.237L158.045,38.237C158.056,38.077 158.091,37.896 158.149,37.693C158.208,37.491 158.309,37.299 158.453,37.117C158.597,36.936 158.789,36.784 159.029,36.661C159.269,36.539 159.571,36.477 159.933,36.477C160.488,36.477 160.901,36.627 161.173,36.925C161.445,37.224 161.635,37.661 161.741,38.237ZM158.045,39.677L164.013,39.677C164.056,39.037 164.003,38.424 163.853,37.837C163.704,37.251 163.461,36.728 163.125,36.269C162.789,35.811 162.36,35.445 161.837,35.173C161.315,34.901 160.701,34.765 159.997,34.765C159.368,34.765 158.795,34.877 158.277,35.101C157.76,35.325 157.315,35.632 156.941,36.021C156.568,36.411 156.28,36.872 156.077,37.405C155.875,37.939 155.773,38.515 155.773,39.133C155.773,39.773 155.872,40.36 156.069,40.893C156.267,41.427 156.547,41.885 156.909,42.269C157.272,42.653 157.715,42.949 158.237,43.157C158.76,43.365 159.347,43.469 159.997,43.469C160.936,43.469 161.736,43.256 162.397,42.829C163.059,42.403 163.549,41.693 163.869,40.701L161.869,40.701C161.795,40.957 161.592,41.2 161.261,41.429C160.931,41.659 160.536,41.773 160.077,41.773C159.437,41.773 158.947,41.608 158.605,41.277C158.264,40.947 158.077,40.413 158.045,39.677Z" style="fill:white;fill-rule:nonzero;"/>
            <rect x="165.421" y="31.837" width="2.272" height="11.424" style="fill:white;fill-rule:nonzero;"/>
            <path d="M171.821,33.709L171.821,31.837L169.549,31.837L169.549,33.709L171.821,33.709ZM169.549,34.989L169.549,43.261L171.821,43.261L171.821,34.989L169.549,34.989Z" style="fill:white;fill-rule:nonzero;"/>
            <path d="M173.613,34.989L173.613,43.261L175.885,43.261L175.885,38.925C175.885,38.083 176.024,37.477 176.301,37.109C176.579,36.741 177.027,36.557 177.645,36.557C178.189,36.557 178.568,36.725 178.781,37.061C178.995,37.397 179.101,37.907 179.101,38.589L179.101,43.261L181.373,43.261L181.373,38.173C181.373,37.661 181.328,37.195 181.237,36.773C181.147,36.352 180.989,35.995 180.765,35.701C180.541,35.408 180.235,35.179 179.845,35.013C179.456,34.848 178.957,34.765 178.349,34.765C177.869,34.765 177.4,34.875 176.941,35.093C176.483,35.312 176.109,35.661 175.821,36.141L175.773,36.141L175.773,34.989L173.613,34.989Z" style="fill:white;fill-rule:nonzero;"/>
            <path d="M188.669,38.237L184.973,38.237C184.984,38.077 185.019,37.896 185.077,37.693C185.136,37.491 185.237,37.299 185.381,37.117C185.525,36.936 185.717,36.784 185.957,36.661C186.197,36.539 186.499,36.477 186.861,36.477C187.416,36.477 187.829,36.627 188.101,36.925C188.373,37.224 188.563,37.661 188.669,38.237ZM184.973,39.677L190.941,39.677C190.984,39.037 190.931,38.424 190.781,37.837C190.632,37.251 190.389,36.728 190.053,36.269C189.717,35.811 189.288,35.445 188.765,35.173C188.243,34.901 187.629,34.765 186.925,34.765C186.296,34.765 185.723,34.877 185.205,35.101C184.688,35.325 184.243,35.632 183.869,36.021C183.496,36.411 183.208,36.872 183.005,37.405C182.803,37.939 182.701,38.515 182.701,39.133C182.701,39.773 182.8,40.36 182.997,40.893C183.195,41.427 183.475,41.885 183.837,42.269C184.2,42.653 184.643,42.949 185.165,43.157C185.688,43.365 186.275,43.469 186.925,43.469C187.864,43.469 188.664,43.256 189.325,42.829C189.987,42.403 190.477,41.693 190.797,40.701L188.797,40.701C188.723,40.957 188.52,41.2 188.189,41.429C187.859,41.659 187.464,41.773 187.005,41.773C186.365,41.773 185.875,41.608 185.533,41.277C185.192,40.947 185.005,40.413 184.973,39.677Z" style="fill:white;fill-rule:nonzero;"/>
        </g>
    </g>
</svg>
